<?xml version="1.0" standalone="no"?>
<!DOCTYPE svg PUBLIC "-//W3C//DTD SVG 20010904//EN"
 "http://www.w3.org/TR/2001/REC-SVG-20010904/DTD/svg10.dtd">
<svg version="1.0" xmlns="http://www.w3.org/2000/svg"
 width="256.000000pt" height="256.000000pt" viewBox="0 0 256.000000 256.000000"
 preserveAspectRatio="xMidYMid meet">
<metadata>
Created by potrace 1.16, written by Peter Selinger 2001-2019
</metadata>
<g transform="translate(0.000000,256.000000) scale(0.100000,-0.100000)"
fill="#000000" stroke="none">
<path d="M2123 2099 c-98 -38 -110 -56 -327 -512 -110 -229 -201 -415 -203
-414 -1 2 56 129 127 282 111 239 130 286 130 329 l0 49 -23 -44 c-13 -24 -86
-178 -162 -342 -146 -315 -156 -331 -248 -379 -41 -23 -50 -23 -418 -26 -547
-4 -497 -35 -734 453 -91 186 -165 350 -165 363 0 30 25 78 47 91 16 9 16 10
-3 11 -28 0 -86 -40 -101 -70 -7 -14 -13 -55 -13 -91 0 -65 1 -69 169 -405
104 -209 180 -349 197 -366 16 -14 49 -37 74 -50 45 -23 47 -23 468 -26 l423
-3 60 27 c33 15 75 44 94 65 19 22 35 37 35 34 0 -17 -45 -92 -64 -107 -29
-24 -3 -23 49 2 44 21 56 46 446 868 89 187 117 230 179 262 46 25 28 24 -37
-1z"/>
<path d="M2452 2049 c-3 -43 -29 -56 -117 -61 -53 -3 -91 -11 -111 -22 -26
-15 -68 -97 -279 -538 -274 -572 -270 -566 -382 -608 -51 -19 -78 -20 -576
-20 -463 0 -525 2 -545 16 -35 24 -45 60 -27 96 l14 30 -27 -7 c-42 -10 -64
-38 -69 -88 -11 -92 18 -132 103 -143 l54 -6 -20 -27 c-75 -107 -39 -290 70
-348 39 -21 56 -24 125 -21 101 4 149 27 189 91 23 38 29 61 32 119 4 72 4 73
-9 33 -20 -61 -45 -93 -95 -122 -119 -70 -272 14 -272 149 0 98 42 155 134
180 53 14 119 1 166 -32 26 -18 45 -20 219 -20 l190 0 -24 -36 c-30 -45 -38
-86 -33 -169 8 -124 89 -195 223 -195 104 1 186 47 213 120 14 37 25 130 15
130 -4 -1 -18 -23 -31 -50 -48 -103 -180 -136 -275 -68 -53 38 -81 120 -65
193 24 115 153 166 273 109 38 -18 38 -18 90 10 29 15 64 39 78 54 14 15 136
257 270 537 276 578 260 555 373 555 110 0 138 27 131 125 -2 33 -4 48 -5 34z"/>
<path d="M286 1780 l27 -50 628 -2 628 -3 -115 -250 c-64 -137 -125 -258 -136
-267 -17 -15 -18 -18 -4 -18 9 0 33 9 54 19 35 18 44 35 172 311 74 161 137
297 138 301 2 5 -316 9 -708 9 l-711 0 27 -50z"/>
</g>
</svg>
